<?xml version="1.0" encoding="utf-8"?>
<!-- Generator: Adobe Illustrator 17.0.0, SVG Export Plug-In . SVG Version: 6.00 Build 0)  -->
<!DOCTYPE svg PUBLIC "-//W3C//DTD SVG 1.1//EN" "http://www.w3.org/Graphics/SVG/1.1/DTD/svg11.dtd">
<svg version="1.1" id="图层_1" xmlns="http://www.w3.org/2000/svg" xmlns:xlink="http://www.w3.org/1999/xlink" x="0px" y="0px"
	 width="30px" height="30px" viewBox="0 0 30 30" enable-background="new 0 0 30 30" xml:space="preserve">
<path fill="none" stroke="#C4C4C4" stroke-width="3" stroke-linecap="round" stroke-miterlimit="10" d="M8.129,34.754
	c2.007-1.207,4.358-1.901,6.871-1.901c7.375,0,13.355,5.979,13.355,13.355S22.375,59.562,15,59.562S1.645,53.583,1.645,46.208
	c0-2.066,0.469-4.022,1.307-5.768"/>
<path fill="none" stroke="#C4C4C4" stroke-width="3" stroke-linecap="round" stroke-linejoin="round" stroke-miterlimit="10" d="
	M15,48.864V45.92c1.856-1.663,3.082-2.483,3.082-4.207s-1.38-3.121-3.082-3.121s-3.082,1.398-3.082,3.121"/>
<circle fill="#C4C4C4" cx="15" cy="53.741" r="1.541"/>
<path fill="none" stroke="#4AB9A2" stroke-width="3" stroke-linecap="round" stroke-miterlimit="10" d="M8.129,3.629
	C10.137,2.422,12.487,1.728,15,1.728c7.375,0,13.355,5.979,13.355,13.355S22.375,28.437,15,28.437S1.645,22.458,1.645,15.083
	c0-2.066,0.469-4.022,1.307-5.768"/>
<path fill="none" stroke="#4AB9A2" stroke-width="3" stroke-linecap="round" stroke-linejoin="round" stroke-miterlimit="10" d="
	M15,17.739v-2.944c1.856-1.663,3.082-2.483,3.082-4.207S16.702,7.467,15,7.467s-3.082,1.398-3.082,3.121"/>
<circle fill="#4AB9A2" cx="15" cy="22.616" r="1.541"/>
</svg>
